<?xml version="1.0" encoding="utf-8"?>
<!-- Generator: Adobe Illustrator 24.2.1, SVG Export Plug-In . SVG Version: 6.00 Build 0)  -->
<svg version="1.1" id="Layer_1" xmlns="http://www.w3.org/2000/svg" xmlns:xlink="http://www.w3.org/1999/xlink" x="0px" y="0px"
	 viewBox="0 0 764 764" style="enable-background:new 0 0 764 764;" xml:space="preserve">
<style type="text/css">
	.st0{opacity:0.18;fill:#337DA3;}
	.st1{fill:#337DA3;}
</style>
<g id="c02" transform="translate(-920 -2834)">
	<circle id="Ellipse_3" class="st0" cx="1302" cy="3216" r="382"/>
	<path id="icon_2" class="st1" d="M1438.3,3136.7c-25.1-34-49.8-61.1-50.8-62.2c-5.5-6-14.8-6.4-20.9-0.9c-0.3,0.3-0.6,0.6-0.9,0.9
		c-1,1.1-25.7,28.2-50.8,62.2c-35.5,48.1-52.7,85.6-52.7,110.9c0,33.8,14.6,65.3,37.9,86.4c-45.9-1-82.9-40-82.9-86.4
		c0-10.4,6.1-38,46.5-93.2c24-32.7,48.3-59.7,48.6-60c5.4-6.1,4.8-15.5-1.4-20.8c-6-5.2-15-4.8-20.5,1c-1,1.1-25.5,28.2-50.4,62.2
		c-35.2,48.1-52.3,85.6-52.3,110.9c0,33.3,14.3,64.6,37,85.6c-45.5-1.6-82-40.4-82-86.3c0-10.4,6.1-37.9,46.8-93.2
		c24.1-32.7,48.7-59.7,49-60c5.4-6.1,4.9-15.4-1.2-20.8c-6-5.3-15.1-4.9-20.6,0.9c-1,1.1-25.7,28.2-50.8,62.2
		c-35.5,48.1-52.7,85.6-52.7,110.9c0,63.2,51.4,115.9,114.6,115.9c12.3,0,24.5-2,36.1-5.8c24.4,8.6,50.9,8.8,75.3,0.3
		c0.1,0,0.1,0,0.1-0.1c12,4.2,24.6,6.3,37.4,6.3c18-0.2,35.7-4.5,51.7-12.6c7.3-3.6,10.3-12.4,6.7-19.8c-3.6-7.3-12.4-10.3-19.8-6.7
		c-0.1,0-0.2,0.1-0.2,0.1c-11.9,6.1-25,9.3-38.4,9.5c-46.8,0-84.9-39.4-84.9-86.4c0-10.4,6.1-37.9,46.8-93.2
		c14.2-19.3,28.6-36.6,38.1-47.6c9.4,10.9,23.7,28.1,38,47.4c40.8,55.4,46.9,83,46.9,93.4c-0.1,12-2.4,23.8-7,34.9
		c-3.1,7.5,0.5,16.2,8,19.3c7.5,3.1,16-0.4,19.2-7.8c6.1-14.7,9.2-30.5,9.3-46.4C1491,3222.4,1473.8,3184.8,1438.3,3136.7
		L1438.3,3136.7z"/>
</g>
</svg>
