<?xml version="1.0" encoding="utf-8"?>
<!-- Generator: Adobe Illustrator 24.2.1, SVG Export Plug-In . SVG Version: 6.00 Build 0)  -->
<svg version="1.1" id="Layer_1" xmlns="http://www.w3.org/2000/svg" xmlns:xlink="http://www.w3.org/1999/xlink" x="0px" y="0px"
	 viewBox="0 0 764 764" style="enable-background:new 0 0 764 764;" xml:space="preserve">
<style type="text/css">
	.st0{opacity:0.18;fill:#337DA3;}
	.st1{fill:#337DA3;}
</style>
<g id="c01" transform="translate(143 -2834)">
	<circle id="Ellipse_2" class="st0" cx="239" cy="3216" r="382"/>
	<path id="icon_4" class="st1" d="M428,3215.3c0,14.3-11.6,25.8-25.8,25.8c-14.3,0-25.8-11.6-25.8-25.8c0-7.5,3.3-14.7,9-19.6
		c-8.9-65.7-60.5-117.5-126.2-126.7c-8.9,11.1-25.2,12.9-36.3,4c-1.5-1.2-2.8-2.5-4-4c-65.7,9.2-117.3,60.9-126.2,126.7
		c10.8,9.3,12.1,25.6,2.8,36.4c-9.3,10.8-25.6,12.1-36.4,2.8c-10.8-9.3-12.1-25.6-2.8-36.4c2-2.3,4.4-4.3,7-5.7
		c4.9-38.9,22.7-75.1,50.5-102.7c8.3-8.3,17.5-15.8,27.3-22.4H97c-8.2,11.7-24.3,14.6-36,6.4c-11.7-8.2-14.6-24.3-6.4-36
		s24.3-14.6,36-6.4c2.5,1.7,4.7,3.9,6.4,6.4h120.8c8.1-11.7,24.2-14.6,36-6.4c2.5,1.7,4.7,3.9,6.4,6.4H381
		c8.2-11.7,24.3-14.6,36-6.4s14.6,24.3,6.4,36s-24.3,14.6-36,6.4c-2.5-1.7-4.7-3.9-6.4-6.4H337c9.8,6.5,18.9,14,27.3,22.4
		c27.8,27.7,45.6,63.8,50.5,102.7C422.9,3197.3,428,3205.9,428,3215.3z M314.1,3225.2c9.7,18.2,9.1,40.1-1.7,57.7
		c-4.2,7-13.3,9.2-20.3,5c-7-4.2-9.2-13.3-5-20.3c0-0.1,0.1-0.1,0.1-0.2c5.2-8.6,5.6-19.4,0.8-28.3l-35.8-65.7l0,57
		c4.1,8,7.4,16,7.4,20.7c0,12.2-9.9,22.1-22.1,22.1c-12.2,0-22.1-9.9-22.1-22.1c0-4.7,3.3-12.7,7.4-20.8l0-53.8l-34.3,62.9
		c-4.7,8.9-4.4,19.6,0.8,28.2l29.2,46.5h49.4c8.2,0,14.8,6.6,14.8,14.8l0,40.8c0,19-15.4,34.4-34.4,34.4l-19.7,0h0
		c-19,0-34.4-15.4-34.4-34.4l0-39l-29.8-47.5l-0.1-0.2c-10.7-17.6-11.3-39.5-1.6-57.6c0,0,0-0.1,0-0.1l62.9-115.4
		c2.6-4.7,7.6-7.7,13-7.7h0c5.4,0,10.4,3,13,7.7L314.1,3225.2L314.1,3225.2L314.1,3225.2z M253,3343.7h-29.5l0,26.1
		c0,2.7,2.2,4.9,4.9,4.9h0l19.7,0c2.7,0,4.9-2.2,4.9-4.9L253,3343.7z"/>
</g>
</svg>
