<?xml version="1.0" encoding="utf-8"?>
<!-- Generator: Adobe Illustrator 24.2.1, SVG Export Plug-In . SVG Version: 6.00 Build 0)  -->
<svg version="1.1" id="Layer_1" xmlns="http://www.w3.org/2000/svg" xmlns:xlink="http://www.w3.org/1999/xlink" x="0px" y="0px"
	 viewBox="0 0 764 764" style="enable-background:new 0 0 764 764;" xml:space="preserve">
<style type="text/css">
	.st0{opacity:0.18;fill:#337DA3;}
	.st1{fill:#337DA3;}
</style>
<g id="c03" transform="translate(-1958 -2834)">
	<circle id="Ellipse_4" class="st0" cx="2340" cy="3216" r="382"/>
	<path id="icon_1" class="st1" d="M2357.5,3172.7c8.2,0,14.9,6.6,15,14.8c0,1.4-0.2,2.8-0.5,4.1l-33.5,118
		c-2.3,7.9-10.5,12.6-18.5,10.3c-7.9-2.2-12.5-10.4-10.3-18.4l33.5-118C2344.9,3177.1,2350.8,3172.7,2357.5,3172.7L2357.5,3172.7z
		 M2243.6,3243.4l36.5-30.6c6.3-5.2,7.2-14.5,2-20.8c-5.2-6.3-14.5-7.2-20.8-2c-0.1,0-0.1,0.1-0.2,0.1l-36.6,30.7l-0.1,0.1
		c-14.6,12.4-16.3,34.2-4,48.8c1.2,1.4,2.5,2.8,4,4c0,0,0,0,0.1,0.1l36.6,30.7c6.2,5.3,15.5,4.5,20.8-1.7c5.3-6.2,4.5-15.5-1.7-20.8
		c0,0-0.1-0.1-0.1-0.1l-36.5-30.6c-2.1-1.8-2.4-5-0.5-7.1C2243.2,3243.7,2243.4,3243.6,2243.6,3243.4L2243.6,3243.4z M2435.6,3251.1
		l-35.8,30.7c-6.3,5.2-7.2,14.5-2,20.8s14.5,7.2,20.8,2c0.1-0.1,0.3-0.2,0.4-0.3l35.8-30.6c14.6-12.4,16.3-34.2,4-48.8
		c-1.2-1.4-2.5-2.7-3.9-3.9l-35.8-30.7c-6.2-5.3-15.5-4.6-20.8,1.6c-5.3,6.2-4.6,15.5,1.6,20.8l35.9,30.7c2.1,1.8,2.4,5,0.6,7.1
		C2436.1,3250.7,2435.9,3251,2435.6,3251.1L2435.6,3251.1z M2529,3086.3v171.3c-0.1,8.2-6.7,14.7-14.9,14.6
		c-8.1-0.1-14.6-6.6-14.6-14.6v-126.2h-318.9v200.1c0,16.3,13.2,29.5,29.5,29.5h259.9c16.3,0,29.5-13.2,29.5-29.5
		c0.1-8.2,6.7-14.7,14.9-14.6c8.1,0.1,14.6,6.6,14.6,14.6c0,32.6-26.5,59-59.1,59.1h-259.9c-32.6,0-59-26.5-59.1-59.1v-245.1
		c0-24.5,19.8-44.3,44.3-44.3h289.4C2509.2,3042,2529,3061.8,2529,3086.3z M2410.1,3086.3c0,8.2,6.6,14.8,14.8,14.8
		s14.8-6.6,14.8-14.8s-6.6-14.8-14.8-14.8C2416.7,3071.5,2410.1,3078.1,2410.1,3086.3L2410.1,3086.3z M2484,3071.5
		c-8.2,0-14.8,6.6-14.8,14.8c0,8.2,6.6,14.8,14.8,14.8c8.2,0,14.8-6.6,14.8-14.8c0,0,0,0,0,0
		C2498.7,3078.1,2492.1,3071.5,2484,3071.5L2484,3071.5z M2180.5,3101.8h202.9c-3.6-9.7-3.7-20.5-0.3-30.3h-187.8
		c-8.2,0-14.8,6.6-14.8,14.8L2180.5,3101.8z"/>
</g>
</svg>
