<svg xmlns="http://www.w3.org/2000/svg" width="764" height="764" viewBox="0 0 764 764">
  <g id="c03" transform="translate(-1958 -2834)">
    <circle id="Ellipse_4" data-name="Ellipse 4" cx="382" cy="382" r="382" transform="translate(1958 2834)" fill="rgba(72,77,255,0.1)"/>
    <path id="icon_1" d="M206.507,130.675a14.865,14.865,0,0,1,14.405,18.866L187.378,267.516a14.96,14.96,0,0,1-28.816-8.052L192.1,141.49a14.954,14.954,0,0,1,14.411-10.815ZM92.574,201.4l36.516-30.615a14.766,14.766,0,1,0-18.973-22.63L73.551,178.807l-.072.061a34.6,34.6,0,0,0,0,52.746c.023.017.046.04.072.061l36.562,30.653A14.765,14.765,0,1,0,129.086,239.7L92.573,209.085a5.069,5.069,0,0,1,0-7.688Zm192.05,7.743L248.8,239.8A14.766,14.766,0,1,0,268,262.233l35.783-30.621a34.6,34.6,0,0,0,.04-52.706L268,148.249a14.765,14.765,0,1,0-19.2,22.437l35.867,30.69a5.071,5.071,0,0,1-.04,7.763ZM378,44.3v171.28a14.766,14.766,0,0,1-29.531,0V89.332H29.532V289.4a29.566,29.566,0,0,0,29.531,29.531H318.937A29.566,29.566,0,0,0,348.468,289.4a14.766,14.766,0,0,1,29.531,0,59.128,59.128,0,0,1-59.062,59.062H59.063A59.128,59.128,0,0,1,0,289.4V44.3A44.345,44.345,0,0,1,44.3,0H333.7A44.345,44.345,0,0,1,378,44.3Zm-118.863,0A14.766,14.766,0,1,0,273.9,29.531,14.783,14.783,0,0,0,259.136,44.3Zm73.828-14.766A14.766,14.766,0,1,0,347.729,44.3,14.783,14.783,0,0,0,332.964,29.531ZM29.532,59.8H232.411a44.206,44.206,0,0,1-.265-30.269H44.3A14.783,14.783,0,0,0,29.533,44.3Zm0,0" transform="translate(2150.999 3042)" fill="#484dff"/>
  </g>
</svg>
