<svg xmlns="http://www.w3.org/2000/svg" viewBox="0 0 119.19 47.64"><defs><style>.cls-1{opacity:0.54;}.cls-2{fill:#797896;}</style></defs><title>ibm</title><g id="Layer_2" data-name="Layer 2"><g id="Section_G" data-name="Section G"><g class="cls-1"><polygon class="cls-2" points="0 0 23.2 0 23.2 3.27 0 3.27 0 0 0 0"/><polygon class="cls-2" points="51.47 0 52.33 0 53.14 0.13 53.96 0.28 54.78 0.46 55.61 0.73 56.36 1.04 57.12 1.4 57.88 1.8 58.58 2.29 59.25 2.77 59.77 3.27 26.53 3.27 26.53 0 51.47 0 51.47 0"/><polygon class="cls-2" points="66.31 0 85.17 0 86.33 3.27 66.31 3.27 66.31 0 66.31 0"/><polygon class="cls-2" points="100.5 0 119.19 0 119.19 3.27 99.35 3.27 100.5 0 100.5 0"/><polygon class="cls-2" points="0 6.36 23.2 6.36 23.2 9.58 0 9.58 0 6.36 0 6.36"/><polygon class="cls-2" points="6.63 12.66 16.55 12.66 16.55 15.95 6.63 15.95 6.63 12.66 6.63 12.66"/><polygon class="cls-2" points="6.63 18.98 16.55 18.98 16.55 22.27 6.63 22.27 6.63 18.98 6.63 18.98"/><polygon class="cls-2" points="62.12 6.36 62.3 6.67 62.66 7.43 62.97 8.28 63.36 9.58 26.53 9.58 26.53 6.36 62.12 6.36 62.12 6.36"/><polygon class="cls-2" points="33.16 12.66 43.07 12.66 43.07 15.95 33.16 15.95 33.16 12.66 33.16 12.66"/><polygon class="cls-2" points="63.66 12.66 63.64 13.18 63.55 14.03 63.42 14.85 63.22 15.66 63.12 15.95 53.05 15.95 53.05 12.66 63.66 12.66 63.66 12.66"/><polygon class="cls-2" points="61.72 18.98 61.41 19.44 60.89 20.11 60.35 20.75 59.77 21.35 59.13 21.91 58.58 22.27 33.16 22.27 33.16 18.98 61.72 18.98 61.72 18.98"/><polygon class="cls-2" points="66.31 6.36 87.39 6.36 88.54 9.58 66.31 9.58 66.31 6.36 66.31 6.36"/><polygon class="cls-2" points="119.19 6.36 119.19 9.58 97.15 9.58 98.27 6.36 119.19 6.36 119.19 6.36"/><polygon class="cls-2" points="72.95 12.66 89.58 12.66 90.74 15.95 72.95 15.95 72.95 12.66 72.95 12.66"/><polygon class="cls-2" points="112.72 12.66 112.72 15.95 94.92 15.95 96.06 12.66 112.72 12.66 112.72 12.66"/><polygon class="cls-2" points="83.93 22.27 101.78 22.27 102.78 19.35 102.78 22.27 112.72 22.27 112.72 18.98 93.87 18.98 92.84 21.91 91.8 18.98 72.95 18.98 72.95 22.27 82.89 22.27 82.89 19.32 83.93 22.27 83.93 22.27"/><polygon class="cls-2" points="0 44.33 23.2 44.33 23.2 47.65 0 47.65 0 44.33 0 44.33"/><polygon class="cls-2" points="0 37.96 23.2 37.96 23.2 41.27 0 41.27 0 37.96 0 37.96"/><polygon class="cls-2" points="6.63 25.34 16.55 25.34 16.55 28.59 6.63 28.59 6.63 25.34 6.63 25.34"/><polygon class="cls-2" points="6.63 31.66 16.55 31.66 16.55 34.95 6.63 34.95 6.63 31.66 6.63 31.66"/><polygon class="cls-2" points="58.58 25.34 59.13 25.74 59.77 26.28 60.35 26.89 60.89 27.53 61.41 28.2 61.72 28.59 33.16 28.59 33.16 25.34 58.58 25.34 58.58 25.34"/><polygon class="cls-2" points="33.16 31.66 43.07 31.66 43.07 34.95 33.16 34.95 33.16 31.66 33.16 31.66"/><polygon class="cls-2" points="63.12 31.66 63.22 31.98 63.42 32.79 63.55 33.61 63.64 34.46 63.66 34.95 53.05 34.95 53.05 31.66 63.12 31.66 63.12 31.66"/><polygon class="cls-2" points="63.36 37.96 63.22 38.63 62.97 39.42 62.66 40.21 62.3 40.98 62.12 41.27 26.53 41.27 26.53 37.96 63.36 37.96 63.36 37.96"/><polygon class="cls-2" points="59.77 44.33 59.13 44.86 58.46 45.38 57.77 45.84 57.01 46.24 56.24 46.61 55.49 46.9 54.66 47.19 53.84 47.36 53.05 47.52 52.2 47.61 51.35 47.65 26.53 47.65 26.53 44.33 59.77 44.33 59.77 44.33"/><polygon class="cls-2" points="72.95 25.34 82.89 25.34 82.89 28.59 72.95 28.59 72.95 25.34 72.95 25.34"/><polygon class="cls-2" points="99.56 28.59 86.08 28.59 84.96 25.34 100.7 25.34 99.56 28.59 99.56 28.59"/><polygon class="cls-2" points="102.78 25.34 112.72 25.34 112.72 28.59 102.78 28.59 102.78 25.34 102.78 25.34"/><polygon class="cls-2" points="72.95 31.66 82.89 31.66 82.89 34.95 72.95 34.95 72.95 31.66 72.95 31.66"/><polygon class="cls-2" points="98.56 31.66 97.42 34.95 88.25 34.95 87.11 31.66 98.56 31.66 98.56 31.66"/><polygon class="cls-2" points="102.78 31.66 112.72 31.66 112.72 34.95 102.78 34.95 102.78 31.66 102.78 31.66"/><polygon class="cls-2" points="66.31 37.96 82.89 37.96 82.89 41.27 66.31 41.27 66.31 37.96 66.31 37.96"/><polygon class="cls-2" points="96.39 37.96 95.27 41.27 90.41 41.27 89.27 37.96 96.39 37.96 96.39 37.96"/><polygon class="cls-2" points="102.78 37.96 119.19 37.96 119.19 41.27 102.78 41.27 102.78 37.96 102.78 37.96"/><polygon class="cls-2" points="66.31 44.33 82.89 44.33 82.89 47.65 66.31 47.65 66.31 44.33 66.31 44.33"/><polygon class="cls-2" points="102.78 44.33 119.19 44.33 119.19 47.65 102.78 47.65 102.78 44.33 102.78 44.33"/><polygon class="cls-2" points="93.07 47.65 94.2 44.33 91.47 44.33 92.59 47.65 93.07 47.65 93.07 47.65"/></g></g></g></svg>