<svg xmlns="http://www.w3.org/2000/svg" width="377.971" height="377.999" viewBox="0 0 377.971 377.999">
  <path id="icon_3" d="M360.668,277.026l-31.293-31.287A14.766,14.766,0,0,0,308.5,266.624l7.267,7.265-41.854,41.9-43.933-43.922L258.662,257.7A44.019,44.019,0,0,0,270.3,186.628l-23.833-23.9c-1.981-1.984-2.852-4.1-2.841-5.309a8.841,8.841,0,0,1,2.841-5.145L312.839,85.7a28.082,28.082,0,0,0-32.282-45.035L175.995,92.417,117.553,33.986a70.829,70.829,0,0,0-27.7-17.1c-.444-.147-.894-.274-1.35-.378L18.061.371A14.767,14.767,0,0,0,.371,18.053L16.478,88.575c.1.456.231.906.378,1.35a70.992,70.992,0,0,0,17.11,27.757l15.423,15.339a14.765,14.765,0,0,0,20.825-20.937l-12.268-12.2,41.845-41.9,48.265,48.256L118.9,120.67a44.6,44.6,0,0,0-25.127,41.649c.461,10.685,5.263,21.127,13.517,29.407l23.856,23.928a7.788,7.788,0,0,1,2.486,5.43,7.888,7.888,0,0,1-2.483,5.027L65.161,292.3a28.191,28.191,0,0,0,19.622,48.046,28.458,28.458,0,0,0,12.637-3l104.6-51.665,75.022,75.007A58.757,58.757,0,0,0,318.854,378h.014a59.143,59.143,0,0,0,41.8-100.971ZM72.812,43.209,43.183,72.875,34.4,34.41ZM92.241,306.958l59.821-60a36.171,36.171,0,0,0,0-52.155l-23.856-23.931c-2.991-3-4.787-6.581-4.926-9.828-.245-5.618,3.262-11.207,8.721-13.906L285.748,71.05l-60.19,60.369c-7.181,7.2-11.357,16.559-11.458,25.672-.1,9.425,4.075,19.077,11.458,26.483l23.833,23.9a14.5,14.5,0,0,1-3.807,23.743ZM339.8,339.788a29.419,29.419,0,0,1-20.937,8.678h-.006A29.421,29.421,0,0,1,297.92,339.8l-3.129-3.129,41.857-41.9,3.141,3.141a29.646,29.646,0,0,1,.009,41.88Zm0,0" transform="translate(0 0.001)" fill="#7551e9"/>
</svg>
