<svg xmlns="http://www.w3.org/2000/svg" width="377.998" height="294.573" viewBox="0 0 377.998 294.573">
  <path id="icon_2" d="M325.28,124.244c-25.092-34.01-49.785-61.065-50.824-62.2a14.765,14.765,0,0,0-21.784,0c-1.039,1.135-25.732,28.19-50.824,62.2-35.473,48.082-52.717,85.615-52.717,110.919,0,33.753,14.625,65.347,37.852,86.355-45.86-1-82.887-40.015-82.887-86.355,0-10.41,6.061-37.981,46.48-93.237,23.954-32.746,48.3-59.653,48.614-60A14.766,14.766,0,0,0,177.33,62.076C176.3,63.212,151.795,90.27,126.9,124.283c-35.2,48.076-52.33,85.594-52.33,110.88,0,33.34,14.272,64.6,36.967,85.58-45.49-1.611-82-40.373-82-86.318,0-10.4,6.08-37.949,46.8-93.193,24.139-32.747,48.678-59.654,48.991-60A14.766,14.766,0,0,0,103.54,61.3c-1.039,1.135-25.732,28.193-50.823,62.2C17.244,171.586,0,209.119,0,234.425c0,63.248,51.4,115.909,114.576,115.909a114.137,114.137,0,0,0,36.148-5.835,114.07,114.07,0,0,0,75.345.344c.05-.017.1-.041.145-.058a113.7,113.7,0,0,0,37.352,6.281,115.988,115.988,0,0,0,51.661-12.636,14.766,14.766,0,1,0-13.251-26.391,86.331,86.331,0,0,1-38.409,9.5c-46.815,0-84.9-39.408-84.9-86.37,0-10.4,6.08-37.948,46.8-93.189,14.249-19.33,28.638-36.624,38.1-47.62,9.421,10.948,23.73,28.147,37.95,47.422,40.85,55.369,46.949,82.971,46.949,93.387a93.185,93.185,0,0,1-6.955,34.853,14.766,14.766,0,0,0,27.2,11.5A122.965,122.965,0,0,0,378,235.163c0-25.3-17.244-62.838-52.717-110.919Z" transform="translate(0 -56.5)" fill="#2dca73"/>
</svg>
