<svg xmlns="http://www.w3.org/2000/svg" viewBox="0 0 197.61 42.2"><defs><style>.cls-1{opacity:0.54;}.cls-2{fill:#797896;}</style></defs><title>microsoft</title><g id="Layer_2" data-name="Layer 2"><g id="Section_G" data-name="Section G"><g class="cls-1"><rect class="cls-2" width="19.35" height="18.86"/><path class="cls-2" d="M42.2,18.86V0H22.88V18.86Z"/><path class="cls-2" d="M181,7.65a7.84,7.84,0,0,1,6.33-.74c0,1.24,0,2.48,0,3.72a4.16,4.16,0,0,0-3.2-.3,2.54,2.54,0,0,0-1.45,2,25.2,25.2,0,0,0-.08,3.25H189c0-1.37,0-2.75,0-4.12,1.44-.41,2.86-.87,4.29-1.3,0,1.81,0,3.62,0,5.43,1.43,0,2.86,0,4.29,0v3.53c-1.43-.06-2.87,0-4.31,0,0,2,0,4.05,0,6.08,0,1.12-.06,2.25.08,3.37a2.2,2.2,0,0,0,.93,1.73,3.22,3.22,0,0,0,3.3-.31v3.56a8.51,8.51,0,0,1-4,.61,4.86,4.86,0,0,1-3.43-1.57A6.48,6.48,0,0,1,189,28.45c0-3.11,0-6.23,0-9.34h-6.35V33.76h-4.35q0-7.32,0-14.64c-1,0-2,0-3,0,0-1.16,0-2.32,0-3.48,1,0,2,0,3,0a18.87,18.87,0,0,1,.3-4.63A5.94,5.94,0,0,1,181,7.65Z"/><path class="cls-2" d="M88.07,7.9a2.68,2.68,0,0,1,2.41.85,2.48,2.48,0,0,1,.3,2.82,2.7,2.7,0,0,1-2.89,1.21,2.45,2.45,0,0,1-2-2.41,2.53,2.53,0,0,1,2.2-2.47Z"/><path class="cls-2" d="M54.8,8.44h6.31l5.92,15c.5,1.24,1,2.51,1.5,3.74,2.52-6.23,5.09-12.45,7.6-18.7,2,0,4.05,0,6.07,0V33.76c-1.46,0-2.92,0-4.38,0,0-6.23,0-12.45,0-18.68q0-.42,0-.84c-.08.13-.16.26-.23.4C75.06,21,72.51,27.36,70,33.74c-1,0-2.08,0-3.12,0C64.3,27.39,61.75,21,59.17,14.62c-.07-.13-.14-.26-.22-.39-.05,2.73,0,5.46,0,8.19V33.76H54.8V8.44Z"/><path class="cls-2" d="M100,15.6a11.78,11.78,0,0,1,6.45,0,5.15,5.15,0,0,1,1.24.51c0,1.38,0,2.77,0,4.15a6.92,6.92,0,0,0-5-1.52,5.13,5.13,0,0,0-3.61,2,7.08,7.08,0,0,0-1.15,5,5.44,5.44,0,0,0,1.76,3.61,5.54,5.54,0,0,0,4.06,1.21,8.44,8.44,0,0,0,3.9-1.6c0,1.31,0,2.62,0,3.93a10.64,10.64,0,0,1-5.94,1.23,8.78,8.78,0,0,1-5.65-2.36,9,9,0,0,1-2.63-6.08A11,11,0,0,1,95.2,19,8.72,8.72,0,0,1,100,15.6Z"/><path class="cls-2" d="M147.45,15.32a11.52,11.52,0,0,1,6,.63v4a7.59,7.59,0,0,0-4.56-1.35,2.33,2.33,0,0,0-2.08,1.15,1.88,1.88,0,0,0,.63,2.22c1.24.82,2.7,1.17,4,1.91a5.74,5.74,0,0,1,2.49,2.36,5.3,5.3,0,0,1-1.13,6.11,8.32,8.32,0,0,1-6,1.84,13.18,13.18,0,0,1-4.42-1c0-1.4,0-2.8,0-4.2a9.51,9.51,0,0,0,3.94,1.7,5,5,0,0,0,3-.28,1.72,1.72,0,0,0,.52-2.46,5.1,5.1,0,0,0-1.89-1.24,18.43,18.43,0,0,1-3.75-1.92,4.49,4.49,0,0,1-1.62-2.47,5.52,5.52,0,0,1,.6-4.33,6.44,6.44,0,0,1,4.32-2.65Z"/><path class="cls-2" d="M117.42,15.89a4.9,4.9,0,0,1,4-.34c0,1.45,0,2.9,0,4.35a4.51,4.51,0,0,0-2.93-.69,3.61,3.61,0,0,0-2.72,2.17,8.08,8.08,0,0,0-.62,3.7c0,2.89,0,5.79,0,8.68h-4.28q0-9.07,0-18.14c1.43,0,2.86,0,4.29,0,0,1,0,2.07,0,3.11a5.6,5.6,0,0,1,2.25-2.84Z"/><path class="cls-2" d="M86.27,15.62c1.44,0,2.88,0,4.32,0,0,6,0,12.09,0,18.13H86.27q0-9.07,0-18.14Z"/><path class="cls-2" d="M139.44,19.85A7.6,7.6,0,0,0,135.65,16a11.55,11.55,0,0,0-6.21-.74,8.7,8.7,0,0,0-5.71,3,9.61,9.61,0,0,0-2,5.55,10.37,10.37,0,0,0,1.59,6.78,8.23,8.23,0,0,0,5,3.27,12.42,12.42,0,0,0,5.08,0,8.4,8.4,0,0,0,5-3.07,9.7,9.7,0,0,0,1.91-5.29A11.9,11.9,0,0,0,139.44,19.85Zm-4.19,8.33a3.93,3.93,0,0,1-2.13,2.09,5.86,5.86,0,0,1-3.54.16,4.31,4.31,0,0,1-2.72-2.25,8.31,8.31,0,0,1-.66-4.54,5.71,5.71,0,0,1,1.68-3.78,4.51,4.51,0,0,1,2.85-1.13A4.63,4.63,0,0,1,134.36,20a5.8,5.8,0,0,1,1.5,3.78A9.45,9.45,0,0,1,135.25,28.18Z"/><path class="cls-2" d="M174.22,20.37a7.77,7.77,0,0,0-3.73-4.22,11.24,11.24,0,0,0-6.45-.87,8.48,8.48,0,0,0-7.66,7.63,12,12,0,0,0,.68,6.3,8.08,8.08,0,0,0,4.41,4.28,11.7,11.7,0,0,0,6.12.52,8.53,8.53,0,0,0,5.34-3.12,10,10,0,0,0,2-6.18A11.64,11.64,0,0,0,174.22,20.37Zm-3.92,6.16a5.78,5.78,0,0,1-1.12,2.66,4,4,0,0,1-2.54,1.36,5.8,5.8,0,0,1-3.11-.33,4.48,4.48,0,0,1-2.29-2.4,8.69,8.69,0,0,1-.51-3.95,6.26,6.26,0,0,1,1.32-3.62,4.44,4.44,0,0,1,3.16-1.52,4.78,4.78,0,0,1,3.48,1,5,5,0,0,1,1.57,2.89A11,11,0,0,1,170.3,26.53Z"/><rect class="cls-2" y="22.91" width="19.35" height="19.29"/><rect class="cls-2" x="22.88" y="22.91" width="19.32" height="19.29"/></g></g></g></svg>