<svg xmlns="http://www.w3.org/2000/svg" viewBox="0 0 101.67 50.41"><defs><style>.cls-1{opacity:0.54;}.cls-2{fill:#797896;}</style></defs><title>sap</title><g id="Layer_2" data-name="Layer 2"><g id="Section_G" data-name="Section G"><g class="cls-1"><path class="cls-2" d="M50.91,0h50.38c.13,0,.32-.07.37,0s-.13.21-.22.29c-5.93,6-11.88,11.87-17.8,17.83q-15.94,16-31.94,32a.82.82,0,0,1-.62.25H.19c-.14,0-.19-.08-.19-.22q0-11.4,0-22.81Q0,14,0,.54V.25C0,.08.1,0,.26,0H50.91ZM22.28,38c-.28.74-.55,1.49-.83,2.23-.12.33-.11.35.25.35H30a.41.41,0,0,0,.46-.35c.43-1.32.87-2.63,1.3-4,.11-.35.11-.35.46-.24a17.23,17.23,0,0,0,5.89.71,16.44,16.44,0,0,0,4.06-.69c.24-.07.32,0,.39.22.41,1.31.85,2.62,1.25,3.94a.45.45,0,0,0,.5.36h14c.41,0,.41,0,.41-.4v-8.8c0-.39,0-.39.39-.4,1.55,0,3.1,0,4.66-.09a14.47,14.47,0,0,0,5-1.23,9.19,9.19,0,0,0,5.37-6.55,13.52,13.52,0,0,0,.14-5.07,9.73,9.73,0,0,0-1.12-3.44,8.74,8.74,0,0,0-4.54-3.82A19.48,19.48,0,0,0,62,9.57c-1.16-.05-2.33-.07-3.5-.07-2.32,0-4.63,0-6.94,0h-1c-.16,0-.24.06-.23.23V32.86a.6.6,0,0,1,0,.35c-.09,0-.1-.12-.12-.18q-2-5.45-4-10.91L41.72,9.76a.34.34,0,0,0-.36-.26H33.24a.34.34,0,0,0-.36.26C32.43,11,32,12.2,31.51,13.42L25.63,29.11c0,.08-.05.18-.14.23a.35.35,0,0,1-.07-.21,7.37,7.37,0,0,0-.51-1.61,8.42,8.42,0,0,0-3.35-3.59,22.43,22.43,0,0,0-4.78-2.11,37.35,37.35,0,0,1-4.22-1.54,7.38,7.38,0,0,1-2.17-1.39,1.43,1.43,0,0,1,.2-2.34,4.21,4.21,0,0,1,1.81-.72,13.49,13.49,0,0,1,4.06.08,17.17,17.17,0,0,1,5,1.65c.23.11.34.08.47-.15q1.57-2.76,3.16-5.51c.11-.19.07-.28-.12-.36A22.54,22.54,0,0,0,20.89,10,24.36,24.36,0,0,0,12,9.08a14.32,14.32,0,0,0-5.91,1.83,9.21,9.21,0,0,0-3.77,3.95,9.06,9.06,0,0,0-.82,4.53,7.64,7.64,0,0,0,2.93,5.69,16.88,16.88,0,0,0,4.17,2.38c1.58.66,3.23,1.12,4.85,1.67a8.91,8.91,0,0,1,2.47,1.18,1.77,1.77,0,0,1,.67,2.25,2.6,2.6,0,0,1-2,1.61A12.26,12.26,0,0,1,9.19,34a16,16,0,0,1-4.42-1.88c-.16-.1-.24-.12-.34.08C3.49,34.13,2.55,36,1.59,37.9c-.09.18-.06.28.12.38.57.31,1.16.6,1.76.87A22.57,22.57,0,0,0,15,41a13,13,0,0,0,5.55-1.81C21.14,38.85,21.7,38.44,22.28,38Z"/><path class="cls-2" d="M66.4,43.84a3.29,3.29,0,1,1-3.32,3.28A3.26,3.26,0,0,1,66.4,43.84ZM69,47.14a2.62,2.62,0,0,0-2.6-2.74,2.71,2.71,0,0,0,0,5.42A2.6,2.6,0,0,0,69,47.14Z"/><path class="cls-2" d="M58.75,20.05V16.41c0-.36,0-.37.36-.37,1,0,2,0,3,.05a6.2,6.2,0,0,1,2.31.62,3.42,3.42,0,0,1,1.89,3.1,4.11,4.11,0,0,1-.67,2.59A4,4,0,0,1,63,24a7,7,0,0,1-1.58.17H59.07c-.26,0-.33-.09-.33-.34C58.75,22.55,58.75,21.3,58.75,20.05Z"/><path class="cls-2" d="M37.22,29.92a10.5,10.5,0,0,1-2.93-.48c-.22-.08-.25-.17-.19-.38,1-3.15,2-6.29,3-9.43,0-.11,0-.29.15-.29s.12.19.16.3Q38.85,24.29,40.3,29c.12.4.13.4-.27.53A10.23,10.23,0,0,1,37.22,29.92Z"/><path class="cls-2" d="M65.13,47.11c0-.54,0-1.08,0-1.62,0-.2.07-.29.28-.28a12.78,12.78,0,0,1,1.64,0,1,1,0,0,1,.88.87,1,1,0,0,1-.7,1.17c-.21.08-.24.15-.11.33.26.36.51.74.77,1.12,0,.06.12.13.07.21s-.13,0-.19,0a.52.52,0,0,1-.61-.32c-.21-.38-.46-.74-.7-1.11a.6.6,0,0,0-.64-.18c-.1.06-.09.15-.09.23v1.05c0,.21,0,.34-.29.34s-.33-.1-.3-.33V47.11Zm1.17-1.36H66c-.18,0-.25.07-.24.25s0,.45,0,.68,0,.19.13.19a2.54,2.54,0,0,0,1.16-.1c.23-.09.27-.31.26-.54a.41.41,0,0,0-.32-.42A2,2,0,0,0,66.3,45.75Z"/></g></g></g></svg>