<svg xmlns="http://www.w3.org/2000/svg" viewBox="0 0 173.95 49.74"><defs><style>.cls-1{opacity:0.54;}.cls-2{fill:#797896;}</style></defs><title>slack</title><g id="Layer_2" data-name="Layer 2"><g id="Section_G" data-name="Section G"><g class="cls-1"><path class="cls-2" d="M0,23.31l0-1.46a4.84,4.84,0,0,1,1.3-2.41,4.49,4.49,0,0,1,1.62-1c1.31-.43,2.61-.87,3.93-1.28a.47.47,0,0,0,.3-.59c-.44-1.28-.89-2.57-1.26-3.88A4.27,4.27,0,0,1,8.72,7.24a4.46,4.46,0,0,1,5.39,2.84c.44,1.28.85,2.56,1.25,3.84.11.36.25.4.59.29q4-1.32,8.06-2.6c.39-.13.49-.27.35-.68-.43-1.21-.82-2.44-1.21-3.67a4.31,4.31,0,0,1,1.1-4.63,3.56,3.56,0,0,1,1.38-.87,4.35,4.35,0,0,1,5.78,2.86c.36,1.21.79,2.39,1.15,3.6.13.41.28.52.71.37,1.31-.46,2.63-.9,4-1.27a4.23,4.23,0,0,1,4.88,2A4.35,4.35,0,0,1,41,14.88a4.41,4.41,0,0,1-1.42.71c-1.24.41-2.47.82-3.71,1.2-.4.13-.45.3-.33.67q1.3,4,2.59,7.92c.19.58.19.57.75.4,1.32-.42,2.61-.94,4-1.26a4.39,4.39,0,0,1,5,2.25,4.33,4.33,0,0,1-2.38,6c-1.33.47-2.67.9-4,1.31-.39.12-.44.29-.31.65.43,1.26.85,2.53,1.23,3.8a4.16,4.16,0,0,1-.25,3.33,4.21,4.21,0,0,1-4.46,2.27,4,4,0,0,1-3.4-2.68c-.52-1.33-.93-2.71-1.36-4.08-.11-.37-.28-.42-.62-.31-2.71.89-5.42,1.78-8.14,2.65-.32.1-.35.25-.25.54.42,1.26.83,2.53,1.23,3.8a4.19,4.19,0,0,1-.74,4.17,4.49,4.49,0,0,1-2.31,1.45l-.38.1H20.33a1.34,1.34,0,0,0-.18-.07,4.38,4.38,0,0,1-3.28-3.13c-.38-1.2-.79-2.38-1.16-3.58-.11-.37-.24-.47-.64-.33-1.25.43-2.53.83-3.8,1.24a4,4,0,0,1-1.46.25,4.42,4.42,0,0,1-4.26-4.24,4.35,4.35,0,0,1,3-4.24c1.29-.44,2.58-.85,3.88-1.26.34-.1.43-.23.31-.59q-1.34-4-2.64-8.08c-.11-.36-.23-.46-.61-.33-1.28.44-2.58.83-3.88,1.26a4.14,4.14,0,0,1-4.5-1.21A4.89,4.89,0,0,1,0,23.31Zm30.26,5.2c0-.07,0-.16-.07-.24-.87-2.68-1.75-5.36-2.61-8-.13-.4-.32-.47-.7-.35q-4,1.34-8.09,2.64c-.28.09-.35.21-.26.5q1.35,4.13,2.68,8.26c.09.29.22.35.5.25.67-.23,1.35-.44,2-.66l6.19-2C30.1,28.79,30.3,28.77,30.28,28.51Z"/><path class="cls-2" d="M174,36.62V37a1.56,1.56,0,0,1-.72.76,17,17,0,0,1-4.15,1.5,1.56,1.56,0,0,1-1.69-.66c-1.48-2-3-3.91-4.43-5.87-1.12-1.49-2.24-3-3.34-4.49-.35-.48-.47-.19-1.43,1a7.9,7.9,0,0,1-1.68,1.48,1.18,1.18,0,0,0-.61,1.07c0,2,0,3.93,0,5.89a1.25,1.25,0,0,1-1.26,1.44,23.74,23.74,0,0,1-4.13,0,1.38,1.38,0,0,1-1.25-1.3c0-.13,0-.26,0-.39V2.57a8.91,8.91,0,0,1,.07-1A1.14,1.14,0,0,1,150.4.38a15.11,15.11,0,0,1,3.68-.12,4.71,4.71,0,0,1,.84.11,1.25,1.25,0,0,1,1,1.11c0,.34,0,.68,0,1V22.4c.54-.5,1-.93,1.46-1.37,1.94-1.86,3.88-3.74,5.83-5.6,1.13-1.1,2.28-2.18,3.41-3.27a1.91,1.91,0,0,1,2.39-.43,16.13,16.13,0,0,1,2.85,1.84,1.31,1.31,0,0,1,.1,2c-1.62,1.6-3.26,3.19-4.89,4.78-.94.92-1.87,1.83-2.81,2.73-.25.23-.26.4-.05.68q4.53,5.85,9,11.71A5.15,5.15,0,0,1,174,36.62Z"/><path class="cls-2" d="M112.37,36.33c-.4.34-.73.66-1.09.94a10.86,10.86,0,0,1-8,2.26,9.94,9.94,0,0,1-5.16-1.86,7.52,7.52,0,0,1-3-6.41,7.77,7.77,0,0,1,2.6-5.9A10.13,10.13,0,0,1,102.54,23a17.19,17.19,0,0,1,9.32.65c.34.11.48.1.46-.3a11.29,11.29,0,0,0-.12-2.25,4.11,4.11,0,0,0-3-3.1,9.38,9.38,0,0,0-6,.09,17.12,17.12,0,0,0-2.93,1.31c-1,.53-1.41.46-2.1-.4a12.82,12.82,0,0,1-1.69-2.57,1.26,1.26,0,0,1,.52-1.92,17.7,17.7,0,0,1,8-2.91,15.32,15.32,0,0,1,7.64.89,9.56,9.56,0,0,1,6.24,8.23,13.86,13.86,0,0,1,.08,1.82V37.58c0,1.28-.47,1.74-1.76,1.74H114a1.48,1.48,0,0,1-1.64-1.75A5.07,5.07,0,0,0,112.37,36.33Zm-.05-6.79a4.7,4.7,0,0,1,0-.65c.07-.47-.14-.66-.57-.79a14.69,14.69,0,0,0-5.09-.67A6.67,6.67,0,0,0,103,28.61a3.15,3.15,0,0,0-1.43,3.27,2.91,2.91,0,0,0,2.64,2.35,8,8,0,0,0,7.31-2.52A2.24,2.24,0,0,0,112.32,29.54Z"/><path class="cls-2" d="M71.73,39.6a24.23,24.23,0,0,1-10.45-2.7,1.24,1.24,0,0,1-.72-1.85,13.57,13.57,0,0,1,1.34-2.63,1.33,1.33,0,0,1,2-.62,29.66,29.66,0,0,0,4.78,1.56,10.22,10.22,0,0,0,4.73.18,3.41,3.41,0,0,0,1.32-.62,1.74,1.74,0,0,0,.18-2.72A5.29,5.29,0,0,0,72.72,29c-1.73-.57-3.48-1.09-5.22-1.66a12.82,12.82,0,0,1-4.57-2.42,6.36,6.36,0,0,1-2.22-4.6,7.51,7.51,0,0,1,1.89-5.66,9.23,9.23,0,0,1,4.69-2.74,17.93,17.93,0,0,1,9,.22,21.64,21.64,0,0,1,4.3,1.48c1,.48,1.19,1,.8,2a13.66,13.66,0,0,1-1.43,2.73,1.3,1.3,0,0,1-1.85.61,27.36,27.36,0,0,0-3.75-1.22,9.72,9.72,0,0,0-4.26-.13,4.58,4.58,0,0,0-1.37.53,1.79,1.79,0,0,0-.18,3.05,6.28,6.28,0,0,0,2.08,1c1.61.51,3.24,1,4.85,1.51a13.88,13.88,0,0,1,3.71,1.76,6.54,6.54,0,0,1,3,4.81,7.29,7.29,0,0,1-2.62,6.86,10.17,10.17,0,0,1-4.83,2.14A14.83,14.83,0,0,1,71.73,39.6Z"/><path class="cls-2" d="M136.66,39.59a16,16,0,0,1-8.18-2.11,12.79,12.79,0,0,1-6.16-9.13,15.46,15.46,0,0,1,.65-8.17,12.55,12.55,0,0,1,8.54-7.95,16.68,16.68,0,0,1,12.46.91,7.15,7.15,0,0,1,1.31.77,1,1,0,0,1,.41,1.34,12.08,12.08,0,0,1-2.3,3.6,1.18,1.18,0,0,1-1.53.12,13.12,13.12,0,0,0-2.41-.95,9.18,9.18,0,0,0-5.56.12,6.74,6.74,0,0,0-4.5,4.8,9,9,0,0,0,.64,6.79,7,7,0,0,0,5.61,3.82A10.43,10.43,0,0,0,142,32.23c1.25-.64,1.6-.58,2.46.53a14.37,14.37,0,0,1,1.3,2c.59,1.06.48,1.59-.53,2.27a15.64,15.64,0,0,1-6.35,2.43A10.57,10.57,0,0,1,136.66,39.59Z"/><path class="cls-2" d="M91.67,19.79V37.65A1.45,1.45,0,0,1,90,39.31H86.56A1.65,1.65,0,0,1,85,37.66V2.26a5.11,5.11,0,0,1,.06-1A1.49,1.49,0,0,1,86.31.13a16.39,16.39,0,0,1,4.14,0,1.35,1.35,0,0,1,1.17,1.1,7.53,7.53,0,0,1,0,1.06Z"/></g></g></g></svg>